<svg xmlns="http://www.w3.org/2000/svg" xmlns:xlink="http://www.w3.org/1999/xlink" width="500" zoomAndPan="magnify" viewBox="0 0 375 149.999998" height="200" preserveAspectRatio="xMidYMid meet" version="1.0"><defs><g/></defs><g fill="#ec3c31" fill-opacity="1"><g transform="translate(2.436312, 141.564555)"><g><path d="M 36.796875 -78.921875 C 36.796875 -69.554688 36.65625 -60.546875 36.375 -51.890625 C 36.09375 -43.242188 35.664062 -35.945312 35.09375 -30 C 34.957031 -28.289062 34.390625 -25.695312 33.390625 -22.21875 C 32.398438 -18.75 31.160156 -15.273438 29.671875 -11.796875 C 28.179688 -8.328125 26.476562 -5.316406 24.5625 -2.765625 C 22.65625 -0.210938 20.707031 1.0625 18.71875 1.0625 C 17.726562 1.0625 16.628906 0.707031 15.421875 0 C 14.210938 -0.707031 13.609375 -1.84375 13.609375 -3.40625 C 13.609375 -3.6875 13.859375 -4.570312 14.359375 -6.0625 C 14.859375 -7.550781 15.25 -8.507812 15.53125 -8.9375 C 16.382812 -14.320312 16.988281 -21.476562 17.34375 -30.40625 C 17.695312 -39.34375 17.90625 -48.953125 17.96875 -59.234375 C 18.039062 -69.523438 18.039062 -80.019531 17.96875 -90.71875 C 17.90625 -101.425781 17.875 -111.320312 17.875 -120.40625 C 17.875 -121.394531 17.304688 -122.132812 16.171875 -122.625 C 15.035156 -123.125 13.722656 -123.585938 12.234375 -124.015625 C 10.742188 -124.441406 9.179688 -124.863281 7.546875 -125.28125 C 5.921875 -125.707031 4.679688 -126.28125 3.828125 -127 C 3.398438 -128.976562 3.289062 -130.816406 3.5 -132.515625 C 3.71875 -134.222656 4.535156 -135.429688 5.953125 -136.140625 C 7.941406 -137.128906 10.316406 -137.875 13.078125 -138.375 C 15.847656 -138.875 18.367188 -139.050781 20.640625 -138.90625 C 23.328125 -138.757812 26.019531 -138.257812 28.71875 -137.40625 C 31.414062 -136.5625 33.828125 -134.9375 35.953125 -132.53125 C 36.941406 -131.25 38.320312 -129.15625 40.09375 -126.25 C 41.863281 -123.34375 43.847656 -120.007812 46.046875 -116.25 C 48.242188 -112.488281 50.515625 -108.625 52.859375 -104.65625 C 55.203125 -100.6875 57.4375 -97.070312 59.5625 -93.8125 C 61.6875 -90.550781 63.597656 -87.851562 65.296875 -85.71875 C 67.003906 -83.59375 68.285156 -82.53125 69.140625 -82.53125 C 70.265625 -82.53125 72.066406 -83.945312 74.546875 -86.78125 C 77.035156 -89.625 79.734375 -93.03125 82.640625 -97 C 85.546875 -100.96875 88.453125 -105.078125 91.359375 -109.328125 C 94.265625 -113.585938 96.710938 -117.132812 98.703125 -119.96875 C 100.398438 -122.101562 101.816406 -124.335938 102.953125 -126.671875 C 104.085938 -129.015625 105.257812 -131.210938 106.46875 -133.265625 C 107.675781 -135.328125 109.09375 -136.992188 110.71875 -138.265625 C 112.351562 -139.546875 114.515625 -140.1875 117.203125 -140.1875 C 119.335938 -140.1875 120.96875 -139.40625 122.09375 -137.84375 C 123.226562 -136.28125 124.007812 -134.578125 124.4375 -132.734375 C 126 -126.359375 126.671875 -119.484375 126.453125 -112.109375 C 126.242188 -104.734375 126.140625 -96.789062 126.140625 -88.28125 C 126.140625 -83.601562 126.101562 -79.628906 126.03125 -76.359375 C 125.957031 -73.097656 125.882812 -69.835938 125.8125 -66.578125 C 125.75 -63.316406 125.644531 -59.664062 125.5 -55.625 C 125.363281 -51.582031 125.222656 -46.441406 125.078125 -40.203125 C 124.929688 -37.222656 124.785156 -33.816406 124.640625 -29.984375 C 124.503906 -26.160156 124.1875 -22.296875 123.6875 -18.390625 C 123.195312 -14.492188 122.421875 -10.773438 121.359375 -7.234375 C 120.296875 -3.691406 118.769531 -0.640625 116.78125 1.921875 C 116.070312 2.765625 115.222656 3.1875 114.234375 3.1875 C 112.671875 3.1875 111.390625 1.910156 110.390625 -0.640625 C 109.398438 -3.191406 108.65625 -6.097656 108.15625 -9.359375 C 107.664062 -12.617188 107.3125 -15.738281 107.09375 -18.71875 C 106.882812 -21.695312 106.78125 -23.679688 106.78125 -24.671875 C 105.9375 -37.578125 105.796875 -50.550781 106.359375 -63.59375 C 106.921875 -76.644531 106.78125 -89.550781 105.9375 -102.3125 C 103.664062 -98.0625 100.828125 -93.488281 97.421875 -88.59375 C 94.015625 -83.707031 90.539062 -79.132812 87 -74.875 C 83.457031 -70.625 79.984375 -67.113281 76.578125 -64.34375 C 73.171875 -61.582031 70.332031 -60.203125 68.0625 -60.203125 C 65.507812 -60.203125 63.03125 -61.050781 60.625 -62.75 C 58.21875 -64.445312 55.984375 -66.5 53.921875 -68.90625 C 51.867188 -71.320312 50.0625 -73.84375 48.5 -76.46875 C 46.9375 -79.09375 45.660156 -81.328125 44.671875 -83.171875 C 43.535156 -85.160156 42.1875 -87.253906 40.625 -89.453125 C 39.070312 -91.648438 37.796875 -93.882812 36.796875 -96.15625 Z M 36.796875 -78.921875 "/></g></g></g><g fill="#26ffdb" fill-opacity="1"><g transform="translate(143.466397, 141.564555)"><g><path d="M 54.671875 -115.71875 C 53.816406 -116.28125 52.820312 -116.988281 51.6875 -117.84375 C 50.550781 -118.695312 49.378906 -119.65625 48.171875 -120.71875 C 46.972656 -121.78125 45.945312 -122.84375 45.09375 -123.90625 C 44.238281 -124.96875 43.742188 -126 43.609375 -127 C 43.328125 -128.125 43.328125 -129.644531 43.609375 -131.5625 C 43.890625 -133.476562 44.671875 -134.4375 45.953125 -134.4375 C 46.660156 -134.4375 47.472656 -134.296875 48.390625 -134.015625 C 49.316406 -133.734375 50.132812 -133.445312 50.84375 -133.15625 C 52.539062 -132.59375 54.347656 -131.78125 56.265625 -130.71875 C 58.179688 -129.65625 59.988281 -128.554688 61.6875 -127.421875 C 63.957031 -125.578125 65.941406 -122.523438 67.640625 -118.265625 C 72.742188 -103.941406 78.164062 -89.332031 83.90625 -74.4375 C 89.65625 -59.550781 95.863281 -43.175781 102.53125 -25.3125 C 103.800781 -22.195312 104.71875 -18.722656 105.28125 -14.890625 C 105.851562 -11.054688 106.101562 -7.472656 106.03125 -4.140625 C 105.96875 -0.816406 105.546875 1.976562 104.765625 4.25 C 103.984375 6.519531 102.882812 7.65625 101.46875 7.65625 C 100.613281 7.65625 99.546875 6.800781 98.265625 5.09375 C 96.992188 3.394531 95.753906 1.414062 94.546875 -0.84375 C 93.347656 -3.113281 92.25 -5.347656 91.25 -7.546875 C 90.257812 -9.742188 89.550781 -11.34375 89.125 -12.34375 L 75.296875 -45.734375 C 71.328125 -44.453125 66.4375 -43.28125 60.625 -42.21875 C 54.8125 -41.15625 47.863281 -40.769531 39.78125 -41.0625 C 39.351562 -39.070312 38.460938 -35.984375 37.109375 -31.796875 C 35.765625 -27.617188 34.273438 -23.296875 32.640625 -18.828125 C 31.015625 -14.359375 29.421875 -10.171875 27.859375 -6.265625 C 26.304688 -2.367188 25.03125 0.210938 24.03125 1.484375 C 22.894531 2.898438 21.546875 4.140625 19.984375 5.203125 C 18.429688 6.273438 16.238281 6.953125 13.40625 7.234375 C 12.832031 7.234375 11.941406 7.195312 10.734375 7.125 C 9.535156 7.050781 8.296875 6.90625 7.015625 6.6875 C 5.742188 6.476562 4.644531 6.125 3.71875 5.625 C 2.800781 5.132812 2.34375 4.535156 2.34375 3.828125 C 2.34375 3.117188 3.050781 2.410156 4.46875 1.703125 C 5.882812 0.992188 6.875 0.351562 7.4375 -0.21875 C 8.863281 -2.769531 10.351562 -5.921875 11.90625 -9.671875 C 13.46875 -13.429688 14.992188 -17.296875 16.484375 -21.265625 C 17.972656 -25.242188 19.351562 -29.144531 20.625 -32.96875 C 21.90625 -36.800781 22.972656 -40.132812 23.828125 -42.96875 C 23.117188 -42.96875 22.265625 -43.109375 21.265625 -43.390625 C 20.273438 -43.671875 19.210938 -43.988281 18.078125 -44.34375 C 16.941406 -44.707031 15.84375 -45.132812 14.78125 -45.625 C 13.71875 -46.125 12.90625 -46.65625 12.34375 -47.21875 C 11.207031 -48.351562 10.25 -49.734375 9.46875 -51.359375 C 8.6875 -52.992188 8.4375 -54.453125 8.71875 -55.734375 C 8.863281 -56.296875 9.609375 -56.613281 10.953125 -56.6875 C 12.296875 -56.757812 13.394531 -56.867188 14.25 -57.015625 L 21.90625 -57.015625 C 23.320312 -57.015625 24.597656 -56.976562 25.734375 -56.90625 C 26.867188 -56.832031 27.578125 -56.796875 27.859375 -56.796875 L 41.265625 -99.34375 C 42.117188 -102.601562 43.429688 -105.507812 45.203125 -108.0625 C 46.972656 -110.613281 48.851562 -112.382812 50.84375 -113.375 Z M 56.578125 -101.046875 C 55.734375 -98.203125 54.773438 -94.863281 53.703125 -91.03125 C 52.640625 -87.207031 51.539062 -83.238281 50.40625 -79.125 C 49.28125 -75.019531 48.179688 -70.976562 47.109375 -67 C 46.046875 -63.03125 45.09375 -59.488281 44.25 -56.375 C 48.363281 -56.226562 52.828125 -56.398438 57.640625 -56.890625 C 62.460938 -57.390625 66.71875 -58.207031 70.40625 -59.34375 C 68 -66.863281 65.976562 -73.140625 64.34375 -78.171875 C 62.71875 -83.203125 61.367188 -87.242188 60.296875 -90.296875 C 59.234375 -93.347656 58.453125 -95.617188 57.953125 -97.109375 C 57.460938 -98.597656 57.078125 -99.625 56.796875 -100.1875 Z M 56.578125 -101.046875 "/></g></g></g><g fill="#ec3c31" fill-opacity="1"><g transform="translate(251.951079, 141.564555)"><g><path d="M 47.21875 -71.6875 C 42.96875 -77.78125 38.820312 -83.453125 34.78125 -88.703125 C 30.738281 -93.953125 26.164062 -99.554688 21.0625 -105.515625 C 19.925781 -106.785156 18.648438 -108.269531 17.234375 -109.96875 C 15.816406 -111.675781 14.46875 -113.34375 13.1875 -114.96875 C 11.914062 -116.601562 10.921875 -118.164062 10.203125 -119.65625 C 9.492188 -121.144531 9.351562 -122.316406 9.78125 -123.171875 C 10.0625 -124.585938 11.226562 -125.257812 13.28125 -125.1875 C 15.34375 -125.113281 17.613281 -124.722656 20.09375 -124.015625 C 22.582031 -123.304688 24.890625 -122.488281 27.015625 -121.5625 C 29.140625 -120.644531 30.488281 -119.972656 31.0625 -119.546875 C 34.039062 -117.421875 36.875 -115.007812 39.5625 -112.3125 C 42.257812 -109.625 44.773438 -106.789062 47.109375 -103.8125 C 49.453125 -100.832031 51.582031 -97.890625 53.5 -94.984375 C 55.414062 -92.078125 57.148438 -89.488281 58.703125 -87.21875 C 60.128906 -89.488281 61.765625 -92.109375 63.609375 -95.078125 C 65.453125 -98.054688 67.328125 -101.070312 69.234375 -104.125 C 71.148438 -107.175781 73.066406 -110.191406 74.984375 -113.171875 C 76.898438 -116.148438 78.707031 -118.84375 80.40625 -121.25 C 82.53125 -124.226562 84.90625 -126.882812 87.53125 -129.21875 C 90.15625 -131.5625 92.8125 -133.40625 95.5 -134.75 C 98.195312 -136.101562 100.75 -136.957031 103.15625 -137.3125 C 105.570312 -137.664062 107.5625 -137.414062 109.125 -136.5625 C 110.113281 -136 110.253906 -134.617188 109.546875 -132.421875 C 108.835938 -130.222656 107.628906 -127.632812 105.921875 -124.65625 C 104.222656 -121.675781 102.238281 -118.445312 99.96875 -114.96875 C 97.707031 -111.5 95.65625 -108.273438 93.8125 -105.296875 C 90.832031 -100.617188 87.640625 -95.757812 84.234375 -90.71875 C 80.828125 -85.6875 76.644531 -79.554688 71.6875 -72.328125 C 74.800781 -67.785156 77.632812 -63.671875 80.1875 -59.984375 C 82.75 -56.296875 85.128906 -52.925781 87.328125 -49.875 C 89.523438 -46.832031 91.546875 -43.960938 93.390625 -41.265625 C 95.234375 -38.566406 97.144531 -35.875 99.125 -33.1875 C 100.820312 -31.0625 102.734375 -28.472656 104.859375 -25.421875 C 106.992188 -22.367188 108.910156 -19.425781 110.609375 -16.59375 C 112.316406 -13.757812 113.628906 -11.207031 114.546875 -8.9375 C 115.472656 -6.664062 115.507812 -5.101562 114.65625 -4.25 C 113.664062 -3.113281 112.101562 -2.722656 109.96875 -3.078125 C 107.84375 -3.429688 105.503906 -4.28125 102.953125 -5.625 C 100.398438 -6.976562 97.738281 -8.820312 94.96875 -11.15625 C 92.207031 -13.5 89.625 -16.09375 87.21875 -18.9375 C 85.65625 -20.78125 83.738281 -23.1875 81.46875 -26.15625 C 79.195312 -29.132812 76.820312 -32.289062 74.34375 -35.625 C 71.863281 -38.957031 69.378906 -42.328125 66.890625 -45.734375 C 64.410156 -49.140625 62.179688 -52.257812 60.203125 -55.09375 C 55.234375 -47.4375 50.125 -39.957031 44.875 -32.65625 C 39.632812 -25.351562 34.957031 -19.289062 30.84375 -14.46875 C 29.425781 -12.757812 27.332031 -11.085938 24.5625 -9.453125 C 21.800781 -7.828125 18.929688 -6.484375 15.953125 -5.421875 C 12.972656 -4.359375 10.273438 -3.71875 7.859375 -3.5 C 5.453125 -3.289062 3.828125 -3.753906 2.984375 -4.890625 C 2.554688 -5.597656 2.445312 -6.410156 2.65625 -7.328125 C 2.875 -8.253906 3.441406 -9.425781 4.359375 -10.84375 C 5.285156 -12.257812 6.523438 -13.992188 8.078125 -16.046875 C 9.640625 -18.109375 11.628906 -20.703125 14.046875 -23.828125 C 20.140625 -31.628906 25.878906 -39.535156 31.265625 -47.546875 C 36.660156 -55.554688 41.976562 -63.601562 47.21875 -71.6875 Z M 47.21875 -71.6875 "/></g></g></g></svg>